<svg width="1080" height="1080" viewBox="0 0 1080 1080" fill="none" xmlns="http://www.w3.org/2000/svg">
<g clip-path="url(#clip0_2_4)">
<path d="M574.902 817.857C562.461 829.314 556.241 835.043 549.159 837.158C543.183 838.943 536.817 838.943 530.841 837.158C523.759 835.043 517.539 829.314 505.098 817.857L172.902 511.917C142.37 483.799 127.105 469.74 125.939 457.546C124.972 447.434 128.864 437.463 136.426 430.68C145.544 422.5 166.297 422.5 207.803 422.5H872.197C913.703 422.5 934.456 422.5 943.575 430.68C951.136 437.463 955.028 447.434 954.061 457.546C952.895 469.74 937.63 483.799 907.098 511.917L574.902 817.857Z" fill="#57B0CA"/>
<path d="M555.754 48.8452L979.909 417.894C996.653 432.462 986.349 460 964.156 460H115.844C93.6504 460 83.3472 432.462 100.091 417.894L524.246 48.8452C533.279 40.9864 546.721 40.9864 555.754 48.8452Z" fill="#57B0CA" stroke="#57B0CA" stroke-width="50"/>
<path d="M831.21 556.077L953.856 436.777C965.133 425.809 964.682 407.561 952.877 397.163L824.488 284.067C806.812 268.496 779.067 281.445 779.649 304.994L785.393 537.39C785.975 560.939 814.325 572.502 831.21 556.077Z" fill="#999DFD" stroke="#57B0CA" stroke-width="50"/>
<path d="M247.183 557.04L123.689 438.617C112.335 427.729 112.656 409.479 124.386 398.997L251.965 284.988C269.53 269.292 297.366 282.043 296.952 305.595L292.866 538.026C292.452 561.579 264.185 573.344 247.183 557.04Z" fill="#999DFD" stroke="#57B0CA" stroke-width="50"/>
<path d="M291 144C291 106.288 291 87.4315 302.716 75.7157C314.431 64 333.288 64 371 64H708C745.712 64 764.569 64 776.284 75.7157C788 87.4315 788 106.288 788 144V1009H291V144Z" fill="white" stroke="black" stroke-width="60"/>
<line x1="513" y1="590" x2="722" y2="590" stroke="black" stroke-width="20" stroke-linecap="round"/>
<path d="M553.076 608.271L975.034 981.522C990.206 994.942 980.714 1020 960.458 1020H116.542C96.2863 1020 86.7939 994.942 101.966 981.522L523.924 608.271C532.247 600.909 544.753 600.909 553.076 608.271Z" fill="#80E2FF" stroke="#57B0CA" stroke-width="50"/>
<path d="M678.026 703.607L969.089 421.092C976.064 414.321 987.75 419.264 987.75 428.985L987.75 994.015C987.75 1003.74 976.064 1008.68 969.089 1001.91L678.026 719.393C673.575 715.072 673.575 707.927 678.026 703.607Z" fill="#80E2FF" stroke="#57B0CA" stroke-width="50"/>
<path d="M398.216 719.363L109.943 1001.4C102.979 1008.22 91.25 1003.28 91.25 993.542L91.25 429.458C91.25 419.716 102.979 414.783 109.943 421.596L398.216 703.637C402.625 707.952 402.625 715.048 398.216 719.363Z" fill="#80E2FF" stroke="#57B0CA" stroke-width="50"/>
<line x1="371" y1="362" x2="580" y2="362" stroke="black" stroke-width="20" stroke-linecap="round"/>
<line x1="627" y1="362" x2="722" y2="362" stroke="black" stroke-width="20" stroke-linecap="round"/>
<line x1="627" y1="514" x2="722" y2="514" stroke="black" stroke-width="20" stroke-linecap="round"/>
<line x1="371" y1="438" x2="466" y2="438" stroke="black" stroke-width="20" stroke-linecap="round"/>
<line x1="371" y1="590" x2="466" y2="590" stroke="black" stroke-width="20" stroke-linecap="round"/>
<line x1="513" y1="438" x2="722" y2="438" stroke="black" stroke-width="20" stroke-linecap="round"/>
<line x1="371" y1="514" x2="580" y2="514" stroke="black" stroke-width="20" stroke-linecap="round"/>
<path d="M521.925 141.389C526.09 122.576 552.91 122.576 557.075 141.389L578.417 237.799C580.382 246.676 588.659 252.694 597.71 251.826L695.774 242.423C714.909 240.588 723.211 266.001 706.683 275.817L621.637 326.327C613.859 330.946 610.718 340.621 614.299 348.929L653.511 439.894C661.131 457.572 639.419 473.261 625.027 460.476L551.454 395.119C544.636 389.062 534.364 389.062 527.546 395.119L453.973 460.476C439.581 473.261 417.869 457.572 425.489 439.894L464.701 348.929C468.282 340.621 465.141 330.946 457.363 326.327L372.317 275.817C355.789 266.001 364.091 240.588 383.226 242.423L481.29 251.826C490.341 252.694 498.618 246.676 500.583 237.799L521.925 141.389Z" fill="#FF93F2"/>
</g>
<defs>
<clipPath id="clip0_2_4">
<rect width="1080" height="1080" fill="white"/>
</clipPath>
</defs>
</svg>
